solid slide_label_removal_safety_holder_v2
  facet normal 0.000000 0.000000 -1.000000
    outer loop
      vertex 0.0000 0.0000 0.0000
      vertex 105.0000 45.0000 0.0000
      vertex 105.0000 0.0000 0.0000
    endloop
  endfacet
  facet normal 0.000000 0.000000 -1.000000
    outer loop
      vertex 0.0000 0.0000 0.0000
      vertex 0.0000 45.0000 0.0000
      vertex 105.0000 45.0000 0.0000
    endloop
  endfacet
  facet normal 0.000000 0.000000 1.000000
    outer loop
      vertex 0.0000 0.0000 5.0000
      vertex 105.0000 0.0000 5.0000
      vertex 105.0000 45.0000 5.0000
    endloop
  endfacet
  facet normal 0.000000 0.000000 1.000000
    outer loop
      vertex 0.0000 0.0000 5.0000
      vertex 105.0000 45.0000 5.0000
      vertex 0.0000 45.0000 5.0000
    endloop
  endfacet
  facet normal 0.000000 -1.000000 0.000000
    outer loop
      vertex 0.0000 0.0000 0.0000
      vertex 105.0000 0.0000 0.0000
      vertex 105.0000 0.0000 5.0000
    endloop
  endfacet
  facet normal 0.000000 -1.000000 0.000000
    outer loop
      vertex 0.0000 0.0000 0.0000
      vertex 105.0000 0.0000 5.0000
      vertex 0.0000 0.0000 5.0000
    endloop
  endfacet
  facet normal 1.000000 0.000000 0.000000
    outer loop
      vertex 105.0000 0.0000 0.0000
      vertex 105.0000 45.0000 0.0000
      vertex 105.0000 45.0000 5.0000
    endloop
  endfacet
  facet normal 1.000000 0.000000 0.000000
    outer loop
      vertex 105.0000 0.0000 0.0000
      vertex 105.0000 45.0000 5.0000
      vertex 105.0000 0.0000 5.0000
    endloop
  endfacet
  facet normal 0.000000 1.000000 0.000000
    outer loop
      vertex 105.0000 45.0000 0.0000
      vertex 0.0000 45.0000 0.0000
      vertex 0.0000 45.0000 5.0000
    endloop
  endfacet
  facet normal 0.000000 1.000000 0.000000
    outer loop
      vertex 105.0000 45.0000 0.0000
      vertex 0.0000 45.0000 5.0000
      vertex 105.0000 45.0000 5.0000
    endloop
  endfacet
  facet normal -1.000000 0.000000 0.000000
    outer loop
      vertex 0.0000 45.0000 0.0000
      vertex 0.0000 0.0000 0.0000
      vertex 0.0000 0.0000 5.0000
    endloop
  endfacet
  facet normal -1.000000 0.000000 0.000000
    outer loop
      vertex 0.0000 45.0000 0.0000
      vertex 0.0000 0.0000 5.0000
      vertex 0.0000 45.0000 5.0000
    endloop
  endfacet
  facet normal 0.000000 0.000000 -1.000000
    outer loop
      vertex 14.0000 5.5000 5.0000
      vertex 90.5000 9.2500 5.0000
      vertex 90.5000 5.5000 5.0000
    endloop
  endfacet
  facet normal 0.000000 0.000000 -1.000000
    outer loop
      vertex 14.0000 5.5000 5.0000
      vertex 14.0000 9.2500 5.0000
      vertex 90.5000 9.2500 5.0000
    endloop
  endfacet
  facet normal 0.000000 0.000000 1.000000
    outer loop
      vertex 14.0000 5.5000 8.0000
      vertex 90.5000 5.5000 8.0000
      vertex 90.5000 9.2500 8.0000
    endloop
  endfacet
  facet normal 0.000000 0.000000 1.000000
    outer loop
      vertex 14.0000 5.5000 8.0000
      vertex 90.5000 9.2500 8.0000
      vertex 14.0000 9.2500 8.0000
    endloop
  endfacet
  facet normal 0.000000 -1.000000 0.000000
    outer loop
      vertex 14.0000 5.5000 5.0000
      vertex 90.5000 5.5000 5.0000
      vertex 90.5000 5.5000 8.0000
    endloop
  endfacet
  facet normal 0.000000 -1.000000 0.000000
    outer loop
      vertex 14.0000 5.5000 5.0000
      vertex 90.5000 5.5000 8.0000
      vertex 14.0000 5.5000 8.0000
    endloop
  endfacet
  facet normal 1.000000 0.000000 0.000000
    outer loop
      vertex 90.5000 5.5000 5.0000
      vertex 90.5000 9.2500 5.0000
      vertex 90.5000 9.2500 8.0000
    endloop
  endfacet
  facet normal 1.000000 0.000000 0.000000
    outer loop
      vertex 90.5000 5.5000 5.0000
      vertex 90.5000 9.2500 8.0000
      vertex 90.5000 5.5000 8.0000
    endloop
  endfacet
  facet normal 0.000000 1.000000 0.000000
    outer loop
      vertex 90.5000 9.2500 5.0000
      vertex 14.0000 9.2500 5.0000
      vertex 14.0000 9.2500 8.0000
    endloop
  endfacet
  facet normal 0.000000 1.000000 -0.000000
    outer loop
      vertex 90.5000 9.2500 5.0000
      vertex 14.0000 9.2500 8.0000
      vertex 90.5000 9.2500 8.0000
    endloop
  endfacet
  facet normal -1.000000 0.000000 0.000000
    outer loop
      vertex 14.0000 9.2500 5.0000
      vertex 14.0000 5.5000 5.0000
      vertex 14.0000 5.5000 8.0000
    endloop
  endfacet
  facet normal -1.000000 0.000000 0.000000
    outer loop
      vertex 14.0000 9.2500 5.0000
      vertex 14.0000 5.5000 8.0000
      vertex 14.0000 9.2500 8.0000
    endloop
  endfacet
  facet normal 0.000000 0.000000 -1.000000
    outer loop
      vertex 14.0000 35.7500 5.0000
      vertex 90.5000 39.5000 5.0000
      vertex 90.5000 35.7500 5.0000
    endloop
  endfacet
  facet normal 0.000000 0.000000 -1.000000
    outer loop
      vertex 14.0000 35.7500 5.0000
      vertex 14.0000 39.5000 5.0000
      vertex 90.5000 39.5000 5.0000
    endloop
  endfacet
  facet normal 0.000000 0.000000 1.000000
    outer loop
      vertex 14.0000 35.7500 8.0000
      vertex 90.5000 35.7500 8.0000
      vertex 90.5000 39.5000 8.0000
    endloop
  endfacet
  facet normal 0.000000 0.000000 1.000000
    outer loop
      vertex 14.0000 35.7500 8.0000
      vertex 90.5000 39.5000 8.0000
      vertex 14.0000 39.5000 8.0000
    endloop
  endfacet
  facet normal 0.000000 -1.000000 0.000000
    outer loop
      vertex 14.0000 35.7500 5.0000
      vertex 90.5000 35.7500 5.0000
      vertex 90.5000 35.7500 8.0000
    endloop
  endfacet
  facet normal 0.000000 -1.000000 0.000000
    outer loop
      vertex 14.0000 35.7500 5.0000
      vertex 90.5000 35.7500 8.0000
      vertex 14.0000 35.7500 8.0000
    endloop
  endfacet
  facet normal 1.000000 0.000000 0.000000
    outer loop
      vertex 90.5000 35.7500 5.0000
      vertex 90.5000 39.5000 5.0000
      vertex 90.5000 39.5000 8.0000
    endloop
  endfacet
  facet normal 1.000000 0.000000 0.000000
    outer loop
      vertex 90.5000 35.7500 5.0000
      vertex 90.5000 39.5000 8.0000
      vertex 90.5000 35.7500 8.0000
    endloop
  endfacet
  facet normal 0.000000 1.000000 0.000000
    outer loop
      vertex 90.5000 39.5000 5.0000
      vertex 14.0000 39.5000 5.0000
      vertex 14.0000 39.5000 8.0000
    endloop
  endfacet
  facet normal 0.000000 1.000000 -0.000000
    outer loop
      vertex 90.5000 39.5000 5.0000
      vertex 14.0000 39.5000 8.0000
      vertex 90.5000 39.5000 8.0000
    endloop
  endfacet
  facet normal -1.000000 0.000000 0.000000
    outer loop
      vertex 14.0000 39.5000 5.0000
      vertex 14.0000 35.7500 5.0000
      vertex 14.0000 35.7500 8.0000
    endloop
  endfacet
  facet normal -1.000000 0.000000 0.000000
    outer loop
      vertex 14.0000 39.5000 5.0000
      vertex 14.0000 35.7500 8.0000
      vertex 14.0000 39.5000 8.0000
    endloop
  endfacet
  facet normal 0.000000 0.000000 -1.000000
    outer loop
      vertex 90.5000 9.2500 5.0000
      vertex 96.5000 35.7500 5.0000
      vertex 96.5000 9.2500 5.0000
    endloop
  endfacet
  facet normal 0.000000 0.000000 -1.000000
    outer loop
      vertex 90.5000 9.2500 5.0000
      vertex 90.5000 35.7500 5.0000
      vertex 96.5000 35.7500 5.0000
    endloop
  endfacet
  facet normal 0.000000 0.000000 1.000000
    outer loop
      vertex 90.5000 9.2500 10.0000
      vertex 96.5000 9.2500 10.0000
      vertex 96.5000 35.7500 10.0000
    endloop
  endfacet
  facet normal 0.000000 0.000000 1.000000
    outer loop
      vertex 90.5000 9.2500 10.0000
      vertex 96.5000 35.7500 10.0000
      vertex 90.5000 35.7500 10.0000
    endloop
  endfacet
  facet normal 0.000000 -1.000000 0.000000
    outer loop
      vertex 90.5000 9.2500 5.0000
      vertex 96.5000 9.2500 5.0000
      vertex 96.5000 9.2500 10.0000
    endloop
  endfacet
  facet normal 0.000000 -1.000000 0.000000
    outer loop
      vertex 90.5000 9.2500 5.0000
      vertex 96.5000 9.2500 10.0000
      vertex 90.5000 9.2500 10.0000
    endloop
  endfacet
  facet normal 1.000000 0.000000 0.000000
    outer loop
      vertex 96.5000 9.2500 5.0000
      vertex 96.5000 35.7500 5.0000
      vertex 96.5000 35.7500 10.0000
    endloop
  endfacet
  facet normal 1.000000 0.000000 0.000000
    outer loop
      vertex 96.5000 9.2500 5.0000
      vertex 96.5000 35.7500 10.0000
      vertex 96.5000 9.2500 10.0000
    endloop
  endfacet
  facet normal 0.000000 1.000000 0.000000
    outer loop
      vertex 96.5000 35.7500 5.0000
      vertex 90.5000 35.7500 5.0000
      vertex 90.5000 35.7500 10.0000
    endloop
  endfacet
  facet normal 0.000000 1.000000 -0.000000
    outer loop
      vertex 96.5000 35.7500 5.0000
      vertex 90.5000 35.7500 10.0000
      vertex 96.5000 35.7500 10.0000
    endloop
  endfacet
  facet normal -1.000000 0.000000 0.000000
    outer loop
      vertex 90.5000 35.7500 5.0000
      vertex 90.5000 9.2500 5.0000
      vertex 90.5000 9.2500 10.0000
    endloop
  endfacet
  facet normal -1.000000 0.000000 0.000000
    outer loop
      vertex 90.5000 35.7500 5.0000
      vertex 90.5000 9.2500 10.0000
      vertex 90.5000 35.7500 10.0000
    endloop
  endfacet
  facet normal 0.000000 0.000000 -1.000000
    outer loop
      vertex 8.0000 9.2500 5.0000
      vertex 14.0000 35.7500 5.0000
      vertex 14.0000 9.2500 5.0000
    endloop
  endfacet
  facet normal 0.000000 0.000000 -1.000000
    outer loop
      vertex 8.0000 9.2500 5.0000
      vertex 8.0000 35.7500 5.0000
      vertex 14.0000 35.7500 5.0000
    endloop
  endfacet
  facet normal 0.000000 0.000000 1.000000
    outer loop
      vertex 8.0000 9.2500 8.0000
      vertex 14.0000 9.2500 8.0000
      vertex 14.0000 35.7500 8.0000
    endloop
  endfacet
  facet normal 0.000000 0.000000 1.000000
    outer loop
      vertex 8.0000 9.2500 8.0000
      vertex 14.0000 35.7500 8.0000
      vertex 8.0000 35.7500 8.0000
    endloop
  endfacet
  facet normal 0.000000 -1.000000 0.000000
    outer loop
      vertex 8.0000 9.2500 5.0000
      vertex 14.0000 9.2500 5.0000
      vertex 14.0000 9.2500 8.0000
    endloop
  endfacet
  facet normal 0.000000 -1.000000 0.000000
    outer loop
      vertex 8.0000 9.2500 5.0000
      vertex 14.0000 9.2500 8.0000
      vertex 8.0000 9.2500 8.0000
    endloop
  endfacet
  facet normal 1.000000 0.000000 0.000000
    outer loop
      vertex 14.0000 9.2500 5.0000
      vertex 14.0000 35.7500 5.0000
      vertex 14.0000 35.7500 8.0000
    endloop
  endfacet
  facet normal 1.000000 0.000000 0.000000
    outer loop
      vertex 14.0000 9.2500 5.0000
      vertex 14.0000 35.7500 8.0000
      vertex 14.0000 9.2500 8.0000
    endloop
  endfacet
  facet normal 0.000000 1.000000 0.000000
    outer loop
      vertex 14.0000 35.7500 5.0000
      vertex 8.0000 35.7500 5.0000
      vertex 8.0000 35.7500 8.0000
    endloop
  endfacet
  facet normal 0.000000 1.000000 -0.000000
    outer loop
      vertex 14.0000 35.7500 5.0000
      vertex 8.0000 35.7500 8.0000
      vertex 14.0000 35.7500 8.0000
    endloop
  endfacet
  facet normal -1.000000 0.000000 0.000000
    outer loop
      vertex 8.0000 35.7500 5.0000
      vertex 8.0000 9.2500 5.0000
      vertex 8.0000 9.2500 8.0000
    endloop
  endfacet
  facet normal -1.000000 0.000000 0.000000
    outer loop
      vertex 8.0000 35.7500 5.0000
      vertex 8.0000 9.2500 8.0000
      vertex 8.0000 35.7500 8.0000
    endloop
  endfacet
  facet normal 0.000000 0.000000 -1.000000
    outer loop
      vertex 18.0000 0.0000 5.0000
      vertex 88.0000 4.2000 5.0000
      vertex 88.0000 0.0000 5.0000
    endloop
  endfacet
  facet normal 0.000000 0.000000 -1.000000
    outer loop
      vertex 18.0000 0.0000 5.0000
      vertex 18.0000 4.2000 5.0000
      vertex 88.0000 4.2000 5.0000
    endloop
  endfacet
  facet normal 0.000000 0.000000 1.000000
    outer loop
      vertex 18.0000 0.0000 13.0000
      vertex 88.0000 0.0000 13.0000
      vertex 88.0000 4.2000 13.0000
    endloop
  endfacet
  facet normal 0.000000 0.000000 1.000000
    outer loop
      vertex 18.0000 0.0000 13.0000
      vertex 88.0000 4.2000 13.0000
      vertex 18.0000 4.2000 13.0000
    endloop
  endfacet
  facet normal 0.000000 -1.000000 0.000000
    outer loop
      vertex 18.0000 0.0000 5.0000
      vertex 88.0000 0.0000 5.0000
      vertex 88.0000 0.0000 13.0000
    endloop
  endfacet
  facet normal 0.000000 -1.000000 0.000000
    outer loop
      vertex 18.0000 0.0000 5.0000
      vertex 88.0000 0.0000 13.0000
      vertex 18.0000 0.0000 13.0000
    endloop
  endfacet
  facet normal 1.000000 0.000000 0.000000
    outer loop
      vertex 88.0000 0.0000 5.0000
      vertex 88.0000 4.2000 5.0000
      vertex 88.0000 4.2000 13.0000
    endloop
  endfacet
  facet normal 1.000000 0.000000 0.000000
    outer loop
      vertex 88.0000 0.0000 5.0000
      vertex 88.0000 4.2000 13.0000
      vertex 88.0000 0.0000 13.0000
    endloop
  endfacet
  facet normal 0.000000 1.000000 0.000000
    outer loop
      vertex 88.0000 4.2000 5.0000
      vertex 18.0000 4.2000 5.0000
      vertex 18.0000 4.2000 13.0000
    endloop
  endfacet
  facet normal 0.000000 1.000000 -0.000000
    outer loop
      vertex 88.0000 4.2000 5.0000
      vertex 18.0000 4.2000 13.0000
      vertex 88.0000 4.2000 13.0000
    endloop
  endfacet
  facet normal -1.000000 0.000000 0.000000
    outer loop
      vertex 18.0000 4.2000 5.0000
      vertex 18.0000 0.0000 5.0000
      vertex 18.0000 0.0000 13.0000
    endloop
  endfacet
  facet normal -1.000000 0.000000 0.000000
    outer loop
      vertex 18.0000 4.2000 5.0000
      vertex 18.0000 0.0000 13.0000
      vertex 18.0000 4.2000 13.0000
    endloop
  endfacet
  facet normal 0.000000 0.000000 -1.000000
    outer loop
      vertex 18.0000 40.8000 5.0000
      vertex 88.0000 45.0000 5.0000
      vertex 88.0000 40.8000 5.0000
    endloop
  endfacet
  facet normal 0.000000 0.000000 -1.000000
    outer loop
      vertex 18.0000 40.8000 5.0000
      vertex 18.0000 45.0000 5.0000
      vertex 88.0000 45.0000 5.0000
    endloop
  endfacet
  facet normal 0.000000 0.000000 1.000000
    outer loop
      vertex 18.0000 40.8000 13.0000
      vertex 88.0000 40.8000 13.0000
      vertex 88.0000 45.0000 13.0000
    endloop
  endfacet
  facet normal 0.000000 0.000000 1.000000
    outer loop
      vertex 18.0000 40.8000 13.0000
      vertex 88.0000 45.0000 13.0000
      vertex 18.0000 45.0000 13.0000
    endloop
  endfacet
  facet normal 0.000000 -1.000000 0.000000
    outer loop
      vertex 18.0000 40.8000 5.0000
      vertex 88.0000 40.8000 5.0000
      vertex 88.0000 40.8000 13.0000
    endloop
  endfacet
  facet normal 0.000000 -1.000000 0.000000
    outer loop
      vertex 18.0000 40.8000 5.0000
      vertex 88.0000 40.8000 13.0000
      vertex 18.0000 40.8000 13.0000
    endloop
  endfacet
  facet normal 1.000000 0.000000 0.000000
    outer loop
      vertex 88.0000 40.8000 5.0000
      vertex 88.0000 45.0000 5.0000
      vertex 88.0000 45.0000 13.0000
    endloop
  endfacet
  facet normal 1.000000 0.000000 0.000000
    outer loop
      vertex 88.0000 40.8000 5.0000
      vertex 88.0000 45.0000 13.0000
      vertex 88.0000 40.8000 13.0000
    endloop
  endfacet
  facet normal 0.000000 1.000000 0.000000
    outer loop
      vertex 88.0000 45.0000 5.0000
      vertex 18.0000 45.0000 5.0000
      vertex 18.0000 45.0000 13.0000
    endloop
  endfacet
  facet normal 0.000000 1.000000 0.000000
    outer loop
      vertex 88.0000 45.0000 5.0000
      vertex 18.0000 45.0000 13.0000
      vertex 88.0000 45.0000 13.0000
    endloop
  endfacet
  facet normal -1.000000 0.000000 0.000000
    outer loop
      vertex 18.0000 45.0000 5.0000
      vertex 18.0000 40.8000 5.0000
      vertex 18.0000 40.8000 13.0000
    endloop
  endfacet
  facet normal -1.000000 0.000000 0.000000
    outer loop
      vertex 18.0000 45.0000 5.0000
      vertex 18.0000 40.8000 13.0000
      vertex 18.0000 45.0000 13.0000
    endloop
  endfacet
  facet normal 0.000000 0.000000 -1.000000
    outer loop
      vertex 2.0000 7.0000 5.0000
      vertex 9.0000 38.0000 5.0000
      vertex 9.0000 7.0000 5.0000
    endloop
  endfacet
  facet normal 0.000000 0.000000 -1.000000
    outer loop
      vertex 2.0000 7.0000 5.0000
      vertex 2.0000 38.0000 5.0000
      vertex 9.0000 38.0000 5.0000
    endloop
  endfacet
  facet normal 0.000000 0.000000 1.000000
    outer loop
      vertex 2.0000 7.0000 11.0000
      vertex 9.0000 7.0000 11.0000
      vertex 9.0000 38.0000 11.0000
    endloop
  endfacet
  facet normal 0.000000 0.000000 1.000000
    outer loop
      vertex 2.0000 7.0000 11.0000
      vertex 9.0000 38.0000 11.0000
      vertex 2.0000 38.0000 11.0000
    endloop
  endfacet
  facet normal 0.000000 -1.000000 0.000000
    outer loop
      vertex 2.0000 7.0000 5.0000
      vertex 9.0000 7.0000 5.0000
      vertex 9.0000 7.0000 11.0000
    endloop
  endfacet
  facet normal 0.000000 -1.000000 0.000000
    outer loop
      vertex 2.0000 7.0000 5.0000
      vertex 9.0000 7.0000 11.0000
      vertex 2.0000 7.0000 11.0000
    endloop
  endfacet
  facet normal 1.000000 0.000000 0.000000
    outer loop
      vertex 9.0000 7.0000 5.0000
      vertex 9.0000 38.0000 5.0000
      vertex 9.0000 38.0000 11.0000
    endloop
  endfacet
  facet normal 1.000000 0.000000 0.000000
    outer loop
      vertex 9.0000 7.0000 5.0000
      vertex 9.0000 38.0000 11.0000
      vertex 9.0000 7.0000 11.0000
    endloop
  endfacet
  facet normal 0.000000 1.000000 0.000000
    outer loop
      vertex 9.0000 38.0000 5.0000
      vertex 2.0000 38.0000 5.0000
      vertex 2.0000 38.0000 11.0000
    endloop
  endfacet
  facet normal 0.000000 1.000000 0.000000
    outer loop
      vertex 9.0000 38.0000 5.0000
      vertex 2.0000 38.0000 11.0000
      vertex 9.0000 38.0000 11.0000
    endloop
  endfacet
  facet normal -1.000000 0.000000 0.000000
    outer loop
      vertex 2.0000 38.0000 5.0000
      vertex 2.0000 7.0000 5.0000
      vertex 2.0000 7.0000 11.0000
    endloop
  endfacet
  facet normal -1.000000 0.000000 0.000000
    outer loop
      vertex 2.0000 38.0000 5.0000
      vertex 2.0000 7.0000 11.0000
      vertex 2.0000 38.0000 11.0000
    endloop
  endfacet
  facet normal 0.000000 0.000000 -1.000000
    outer loop
      vertex 78.0000 6.0000 5.0000
      vertex 94.0000 9.0000 5.0000
      vertex 94.0000 6.0000 5.0000
    endloop
  endfacet
  facet normal 0.000000 0.000000 -1.000000
    outer loop
      vertex 78.0000 6.0000 5.0000
      vertex 78.0000 9.0000 5.0000
      vertex 94.0000 9.0000 5.0000
    endloop
  endfacet
  facet normal -0.213697 0.000000 0.976900
    outer loop
      vertex 78.0000 6.0000 6.5000
      vertex 94.0000 6.0000 10.0000
      vertex 94.0000 9.0000 10.0000
    endloop
  endfacet
  facet normal -0.213697 0.000000 0.976900
    outer loop
      vertex 78.0000 6.0000 6.5000
      vertex 94.0000 9.0000 10.0000
      vertex 78.0000 9.0000 6.5000
    endloop
  endfacet
  facet normal 0.000000 -1.000000 0.000000
    outer loop
      vertex 78.0000 6.0000 5.0000
      vertex 94.0000 6.0000 5.0000
      vertex 94.0000 6.0000 10.0000
    endloop
  endfacet
  facet normal 0.000000 -1.000000 0.000000
    outer loop
      vertex 78.0000 6.0000 5.0000
      vertex 94.0000 6.0000 10.0000
      vertex 78.0000 6.0000 6.5000
    endloop
  endfacet
  facet normal 1.000000 0.000000 0.000000
    outer loop
      vertex 94.0000 6.0000 5.0000
      vertex 94.0000 9.0000 5.0000
      vertex 94.0000 9.0000 10.0000
    endloop
  endfacet
  facet normal 1.000000 0.000000 0.000000
    outer loop
      vertex 94.0000 6.0000 5.0000
      vertex 94.0000 9.0000 10.0000
      vertex 94.0000 6.0000 10.0000
    endloop
  endfacet
  facet normal 0.000000 1.000000 0.000000
    outer loop
      vertex 94.0000 9.0000 5.0000
      vertex 78.0000 9.0000 5.0000
      vertex 78.0000 9.0000 6.5000
    endloop
  endfacet
  facet normal 0.000000 1.000000 -0.000000
    outer loop
      vertex 94.0000 9.0000 5.0000
      vertex 78.0000 9.0000 6.5000
      vertex 94.0000 9.0000 10.0000
    endloop
  endfacet
  facet normal -1.000000 0.000000 0.000000
    outer loop
      vertex 78.0000 9.0000 5.0000
      vertex 78.0000 6.0000 5.0000
      vertex 78.0000 6.0000 6.5000
    endloop
  endfacet
  facet normal -1.000000 0.000000 0.000000
    outer loop
      vertex 78.0000 9.0000 5.0000
      vertex 78.0000 6.0000 6.5000
      vertex 78.0000 9.0000 6.5000
    endloop
  endfacet
  facet normal 0.000000 0.000000 -1.000000
    outer loop
      vertex 78.0000 36.0000 5.0000
      vertex 94.0000 39.0000 5.0000
      vertex 94.0000 36.0000 5.0000
    endloop
  endfacet
  facet normal 0.000000 0.000000 -1.000000
    outer loop
      vertex 78.0000 36.0000 5.0000
      vertex 78.0000 39.0000 5.0000
      vertex 94.0000 39.0000 5.0000
    endloop
  endfacet
  facet normal -0.213697 0.000000 0.976900
    outer loop
      vertex 78.0000 36.0000 6.5000
      vertex 94.0000 36.0000 10.0000
      vertex 94.0000 39.0000 10.0000
    endloop
  endfacet
  facet normal -0.213697 0.000000 0.976900
    outer loop
      vertex 78.0000 36.0000 6.5000
      vertex 94.0000 39.0000 10.0000
      vertex 78.0000 39.0000 6.5000
    endloop
  endfacet
  facet normal 0.000000 -1.000000 0.000000
    outer loop
      vertex 78.0000 36.0000 5.0000
      vertex 94.0000 36.0000 5.0000
      vertex 94.0000 36.0000 10.0000
    endloop
  endfacet
  facet normal 0.000000 -1.000000 0.000000
    outer loop
      vertex 78.0000 36.0000 5.0000
      vertex 94.0000 36.0000 10.0000
      vertex 78.0000 36.0000 6.5000
    endloop
  endfacet
  facet normal 1.000000 0.000000 0.000000
    outer loop
      vertex 94.0000 36.0000 5.0000
      vertex 94.0000 39.0000 5.0000
      vertex 94.0000 39.0000 10.0000
    endloop
  endfacet
  facet normal 1.000000 0.000000 0.000000
    outer loop
      vertex 94.0000 36.0000 5.0000
      vertex 94.0000 39.0000 10.0000
      vertex 94.0000 36.0000 10.0000
    endloop
  endfacet
  facet normal 0.000000 1.000000 0.000000
    outer loop
      vertex 94.0000 39.0000 5.0000
      vertex 78.0000 39.0000 5.0000
      vertex 78.0000 39.0000 6.5000
    endloop
  endfacet
  facet normal 0.000000 1.000000 -0.000000
    outer loop
      vertex 94.0000 39.0000 5.0000
      vertex 78.0000 39.0000 6.5000
      vertex 94.0000 39.0000 10.0000
    endloop
  endfacet
  facet normal -1.000000 0.000000 0.000000
    outer loop
      vertex 78.0000 39.0000 5.0000
      vertex 78.0000 36.0000 5.0000
      vertex 78.0000 36.0000 6.5000
    endloop
  endfacet
  facet normal -1.000000 0.000000 0.000000
    outer loop
      vertex 78.0000 39.0000 5.0000
      vertex 78.0000 36.0000 6.5000
      vertex 78.0000 39.0000 6.5000
    endloop
  endfacet
  facet normal 0.000000 0.000000 -1.000000
    outer loop
      vertex 80.0000 21.5000 5.0000
      vertex 95.0000 23.5000 5.0000
      vertex 95.0000 21.5000 5.0000
    endloop
  endfacet
  facet normal 0.000000 0.000000 -1.000000
    outer loop
      vertex 80.0000 21.5000 5.0000
      vertex 80.0000 23.5000 5.0000
      vertex 95.0000 23.5000 5.0000
    endloop
  endfacet
  facet normal 0.000000 0.000000 1.000000
    outer loop
      vertex 80.0000 21.5000 6.0000
      vertex 95.0000 21.5000 6.0000
      vertex 95.0000 23.5000 6.0000
    endloop
  endfacet
  facet normal 0.000000 0.000000 1.000000
    outer loop
      vertex 80.0000 21.5000 6.0000
      vertex 95.0000 23.5000 6.0000
      vertex 80.0000 23.5000 6.0000
    endloop
  endfacet
  facet normal 0.000000 -1.000000 0.000000
    outer loop
      vertex 80.0000 21.5000 5.0000
      vertex 95.0000 21.5000 5.0000
      vertex 95.0000 21.5000 6.0000
    endloop
  endfacet
  facet normal 0.000000 -1.000000 0.000000
    outer loop
      vertex 80.0000 21.5000 5.0000
      vertex 95.0000 21.5000 6.0000
      vertex 80.0000 21.5000 6.0000
    endloop
  endfacet
  facet normal 1.000000 0.000000 0.000000
    outer loop
      vertex 95.0000 21.5000 5.0000
      vertex 95.0000 23.5000 5.0000
      vertex 95.0000 23.5000 6.0000
    endloop
  endfacet
  facet normal 1.000000 0.000000 0.000000
    outer loop
      vertex 95.0000 21.5000 5.0000
      vertex 95.0000 23.5000 6.0000
      vertex 95.0000 21.5000 6.0000
    endloop
  endfacet
  facet normal 0.000000 1.000000 0.000000
    outer loop
      vertex 95.0000 23.5000 5.0000
      vertex 80.0000 23.5000 5.0000
      vertex 80.0000 23.5000 6.0000
    endloop
  endfacet
  facet normal 0.000000 1.000000 -0.000000
    outer loop
      vertex 95.0000 23.5000 5.0000
      vertex 80.0000 23.5000 6.0000
      vertex 95.0000 23.5000 6.0000
    endloop
  endfacet
  facet normal -1.000000 0.000000 0.000000
    outer loop
      vertex 80.0000 23.5000 5.0000
      vertex 80.0000 21.5000 5.0000
      vertex 80.0000 21.5000 6.0000
    endloop
  endfacet
  facet normal -1.000000 0.000000 0.000000
    outer loop
      vertex 80.0000 23.5000 5.0000
      vertex 80.0000 21.5000 6.0000
      vertex 80.0000 23.5000 6.0000
    endloop
  endfacet
  facet normal 0.000000 0.000000 -1.000000
    outer loop
      vertex 2.0000 2.0000 0.0000
      vertex 9.0000 9.0000 0.0000
      vertex 9.0000 2.0000 0.0000
    endloop
  endfacet
  facet normal 0.000000 0.000000 -1.000000
    outer loop
      vertex 2.0000 2.0000 0.0000
      vertex 2.0000 9.0000 0.0000
      vertex 9.0000 9.0000 0.0000
    endloop
  endfacet
  facet normal 0.000000 0.000000 1.000000
    outer loop
      vertex 2.0000 2.0000 6.5000
      vertex 9.0000 2.0000 6.5000
      vertex 9.0000 9.0000 6.5000
    endloop
  endfacet
  facet normal 0.000000 0.000000 1.000000
    outer loop
      vertex 2.0000 2.0000 6.5000
      vertex 9.0000 9.0000 6.5000
      vertex 2.0000 9.0000 6.5000
    endloop
  endfacet
  facet normal 0.000000 -1.000000 0.000000
    outer loop
      vertex 2.0000 2.0000 0.0000
      vertex 9.0000 2.0000 0.0000
      vertex 9.0000 2.0000 6.5000
    endloop
  endfacet
  facet normal 0.000000 -1.000000 0.000000
    outer loop
      vertex 2.0000 2.0000 0.0000
      vertex 9.0000 2.0000 6.5000
      vertex 2.0000 2.0000 6.5000
    endloop
  endfacet
  facet normal 1.000000 0.000000 0.000000
    outer loop
      vertex 9.0000 2.0000 0.0000
      vertex 9.0000 9.0000 0.0000
      vertex 9.0000 9.0000 6.5000
    endloop
  endfacet
  facet normal 1.000000 0.000000 0.000000
    outer loop
      vertex 9.0000 2.0000 0.0000
      vertex 9.0000 9.0000 6.5000
      vertex 9.0000 2.0000 6.5000
    endloop
  endfacet
  facet normal 0.000000 1.000000 0.000000
    outer loop
      vertex 9.0000 9.0000 0.0000
      vertex 2.0000 9.0000 0.0000
      vertex 2.0000 9.0000 6.5000
    endloop
  endfacet
  facet normal 0.000000 1.000000 0.000000
    outer loop
      vertex 9.0000 9.0000 0.0000
      vertex 2.0000 9.0000 6.5000
      vertex 9.0000 9.0000 6.5000
    endloop
  endfacet
  facet normal -1.000000 0.000000 0.000000
    outer loop
      vertex 2.0000 9.0000 0.0000
      vertex 2.0000 2.0000 0.0000
      vertex 2.0000 2.0000 6.5000
    endloop
  endfacet
  facet normal -1.000000 0.000000 0.000000
    outer loop
      vertex 2.0000 9.0000 0.0000
      vertex 2.0000 2.0000 6.5000
      vertex 2.0000 9.0000 6.5000
    endloop
  endfacet
  facet normal 0.000000 0.000000 -1.000000
    outer loop
      vertex 96.0000 2.0000 0.0000
      vertex 103.0000 9.0000 0.0000
      vertex 103.0000 2.0000 0.0000
    endloop
  endfacet
  facet normal 0.000000 0.000000 -1.000000
    outer loop
      vertex 96.0000 2.0000 0.0000
      vertex 96.0000 9.0000 0.0000
      vertex 103.0000 9.0000 0.0000
    endloop
  endfacet
  facet normal 0.000000 0.000000 1.000000
    outer loop
      vertex 96.0000 2.0000 6.5000
      vertex 103.0000 2.0000 6.5000
      vertex 103.0000 9.0000 6.5000
    endloop
  endfacet
  facet normal 0.000000 0.000000 1.000000
    outer loop
      vertex 96.0000 2.0000 6.5000
      vertex 103.0000 9.0000 6.5000
      vertex 96.0000 9.0000 6.5000
    endloop
  endfacet
  facet normal 0.000000 -1.000000 0.000000
    outer loop
      vertex 96.0000 2.0000 0.0000
      vertex 103.0000 2.0000 0.0000
      vertex 103.0000 2.0000 6.5000
    endloop
  endfacet
  facet normal 0.000000 -1.000000 0.000000
    outer loop
      vertex 96.0000 2.0000 0.0000
      vertex 103.0000 2.0000 6.5000
      vertex 96.0000 2.0000 6.5000
    endloop
  endfacet
  facet normal 1.000000 0.000000 0.000000
    outer loop
      vertex 103.0000 2.0000 0.0000
      vertex 103.0000 9.0000 0.0000
      vertex 103.0000 9.0000 6.5000
    endloop
  endfacet
  facet normal 1.000000 0.000000 0.000000
    outer loop
      vertex 103.0000 2.0000 0.0000
      vertex 103.0000 9.0000 6.5000
      vertex 103.0000 2.0000 6.5000
    endloop
  endfacet
  facet normal 0.000000 1.000000 0.000000
    outer loop
      vertex 103.0000 9.0000 0.0000
      vertex 96.0000 9.0000 0.0000
      vertex 96.0000 9.0000 6.5000
    endloop
  endfacet
  facet normal 0.000000 1.000000 0.000000
    outer loop
      vertex 103.0000 9.0000 0.0000
      vertex 96.0000 9.0000 6.5000
      vertex 103.0000 9.0000 6.5000
    endloop
  endfacet
  facet normal -1.000000 0.000000 0.000000
    outer loop
      vertex 96.0000 9.0000 0.0000
      vertex 96.0000 2.0000 0.0000
      vertex 96.0000 2.0000 6.5000
    endloop
  endfacet
  facet normal -1.000000 0.000000 0.000000
    outer loop
      vertex 96.0000 9.0000 0.0000
      vertex 96.0000 2.0000 6.5000
      vertex 96.0000 9.0000 6.5000
    endloop
  endfacet
  facet normal 0.000000 0.000000 -1.000000
    outer loop
      vertex 2.0000 36.0000 0.0000
      vertex 9.0000 43.0000 0.0000
      vertex 9.0000 36.0000 0.0000
    endloop
  endfacet
  facet normal 0.000000 0.000000 -1.000000
    outer loop
      vertex 2.0000 36.0000 0.0000
      vertex 2.0000 43.0000 0.0000
      vertex 9.0000 43.0000 0.0000
    endloop
  endfacet
  facet normal 0.000000 0.000000 1.000000
    outer loop
      vertex 2.0000 36.0000 6.5000
      vertex 9.0000 36.0000 6.5000
      vertex 9.0000 43.0000 6.5000
    endloop
  endfacet
  facet normal 0.000000 0.000000 1.000000
    outer loop
      vertex 2.0000 36.0000 6.5000
      vertex 9.0000 43.0000 6.5000
      vertex 2.0000 43.0000 6.5000
    endloop
  endfacet
  facet normal 0.000000 -1.000000 0.000000
    outer loop
      vertex 2.0000 36.0000 0.0000
      vertex 9.0000 36.0000 0.0000
      vertex 9.0000 36.0000 6.5000
    endloop
  endfacet
  facet normal 0.000000 -1.000000 0.000000
    outer loop
      vertex 2.0000 36.0000 0.0000
      vertex 9.0000 36.0000 6.5000
      vertex 2.0000 36.0000 6.5000
    endloop
  endfacet
  facet normal 1.000000 0.000000 0.000000
    outer loop
      vertex 9.0000 36.0000 0.0000
      vertex 9.0000 43.0000 0.0000
      vertex 9.0000 43.0000 6.5000
    endloop
  endfacet
  facet normal 1.000000 0.000000 0.000000
    outer loop
      vertex 9.0000 36.0000 0.0000
      vertex 9.0000 43.0000 6.5000
      vertex 9.0000 36.0000 6.5000
    endloop
  endfacet
  facet normal 0.000000 1.000000 0.000000
    outer loop
      vertex 9.0000 43.0000 0.0000
      vertex 2.0000 43.0000 0.0000
      vertex 2.0000 43.0000 6.5000
    endloop
  endfacet
  facet normal 0.000000 1.000000 0.000000
    outer loop
      vertex 9.0000 43.0000 0.0000
      vertex 2.0000 43.0000 6.5000
      vertex 9.0000 43.0000 6.5000
    endloop
  endfacet
  facet normal -1.000000 0.000000 0.000000
    outer loop
      vertex 2.0000 43.0000 0.0000
      vertex 2.0000 36.0000 0.0000
      vertex 2.0000 36.0000 6.5000
    endloop
  endfacet
  facet normal -1.000000 0.000000 0.000000
    outer loop
      vertex 2.0000 43.0000 0.0000
      vertex 2.0000 36.0000 6.5000
      vertex 2.0000 43.0000 6.5000
    endloop
  endfacet
  facet normal 0.000000 0.000000 -1.000000
    outer loop
      vertex 96.0000 36.0000 0.0000
      vertex 103.0000 43.0000 0.0000
      vertex 103.0000 36.0000 0.0000
    endloop
  endfacet
  facet normal 0.000000 0.000000 -1.000000
    outer loop
      vertex 96.0000 36.0000 0.0000
      vertex 96.0000 43.0000 0.0000
      vertex 103.0000 43.0000 0.0000
    endloop
  endfacet
  facet normal 0.000000 0.000000 1.000000
    outer loop
      vertex 96.0000 36.0000 6.5000
      vertex 103.0000 36.0000 6.5000
      vertex 103.0000 43.0000 6.5000
    endloop
  endfacet
  facet normal 0.000000 0.000000 1.000000
    outer loop
      vertex 96.0000 36.0000 6.5000
      vertex 103.0000 43.0000 6.5000
      vertex 96.0000 43.0000 6.5000
    endloop
  endfacet
  facet normal 0.000000 -1.000000 0.000000
    outer loop
      vertex 96.0000 36.0000 0.0000
      vertex 103.0000 36.0000 0.0000
      vertex 103.0000 36.0000 6.5000
    endloop
  endfacet
  facet normal 0.000000 -1.000000 0.000000
    outer loop
      vertex 96.0000 36.0000 0.0000
      vertex 103.0000 36.0000 6.5000
      vertex 96.0000 36.0000 6.5000
    endloop
  endfacet
  facet normal 1.000000 0.000000 0.000000
    outer loop
      vertex 103.0000 36.0000 0.0000
      vertex 103.0000 43.0000 0.0000
      vertex 103.0000 43.0000 6.5000
    endloop
  endfacet
  facet normal 1.000000 0.000000 0.000000
    outer loop
      vertex 103.0000 36.0000 0.0000
      vertex 103.0000 43.0000 6.5000
      vertex 103.0000 36.0000 6.5000
    endloop
  endfacet
  facet normal 0.000000 1.000000 0.000000
    outer loop
      vertex 103.0000 43.0000 0.0000
      vertex 96.0000 43.0000 0.0000
      vertex 96.0000 43.0000 6.5000
    endloop
  endfacet
  facet normal 0.000000 1.000000 0.000000
    outer loop
      vertex 103.0000 43.0000 0.0000
      vertex 96.0000 43.0000 6.5000
      vertex 103.0000 43.0000 6.5000
    endloop
  endfacet
  facet normal -1.000000 0.000000 0.000000
    outer loop
      vertex 96.0000 43.0000 0.0000
      vertex 96.0000 36.0000 0.0000
      vertex 96.0000 36.0000 6.5000
    endloop
  endfacet
  facet normal -1.000000 0.000000 0.000000
    outer loop
      vertex 96.0000 43.0000 0.0000
      vertex 96.0000 36.0000 6.5000
      vertex 96.0000 43.0000 6.5000
    endloop
  endfacet
endsolid slide_label_removal_safety_holder_v2
